<svg xmlns="http://www.w3.org/2000/svg" viewBox="0 0 429.43 372.06"><defs><style>.cls-1{fill:#283557;}.cls-2{fill:none;stroke:#01f7ff;stroke-miterlimit:10;stroke-width:3px;}.cls-3{fill:#1572b6;}.cls-4{fill:#33a9dc;}.cls-5{fill:#fff;}.cls-6{fill:#ebebeb;}</style></defs><title>css-icon</title><g id="Capa_2" data-name="Capa 2"><g id="Skiils"><path class="cls-1" d="M149.26,7.39S1.3,24.8,0,137a127.56,127.56,0,0,0,17.68,65.61C39,239.13,88,317.27,126.16,334.8a55.84,55.84,0,0,1,6.26,3.42c15,9.34,77.35,42.95,126.41-8.19a67.52,67.52,0,0,0,18.27-38.89c3-25.64,13.72-74.16,52.16-92.58A105.36,105.36,0,0,0,350,185.73c20.36-16.42,56.16-52.15,51.83-97.82-.08-.87-.14-1.74-.18-2.6-.35-9-7.31-73.84-135.11-84.13a386.24,386.24,0,0,0-74.25,1.36Z"/><path class="cls-2" d="M175,20.24S27,37.65,25.71,149.83A127.57,127.57,0,0,0,43.4,215.44C64.71,252,113.66,330.12,151.86,347.65a56,56,0,0,1,6.27,3.42c15,9.34,77.35,42.95,126.4-8.19A67.4,67.4,0,0,0,302.8,304c3-25.65,13.72-74.17,52.17-92.58a105.62,105.62,0,0,0,20.76-12.84c20.37-16.42,56.16-52.15,51.84-97.82-.08-.87-.15-1.73-.18-2.6-.35-9-7.32-73.84-135.12-84.13A386.14,386.14,0,0,0,218,15.39Z"/><path class="cls-3" d="M140.42,210.43,130.36,97.66H240.84L230.78,210.41,185.54,223Z"/><path class="cls-4" d="M185.61,213.37l36.55-10.14,8.61-96.35H185.61Z"/><path class="cls-5" d="M185.61,147.73h18.3l1.26-14.16H185.61V119.74h34.68l-.33,3.71-3.4,38.11H185.61Z"/><path class="cls-6" d="M185.69,183.65l-.06,0-15.41-4.16-1-11H155.36l1.93,21.72,28.33,7.86.07,0Z"/><path class="cls-5" d="M202.73,161l-1.66,18.52-15.43,4.17v14.39L214,190.2l.21-2.34L216.61,161Z"/><path class="cls-6" d="M185.65,119.74v13.83H152.24l-.27-3.11-.63-7-.33-3.71Zm0,28v13.83H170.4l-.28-3.11-.63-7-.33-3.71Z"/></g></g></svg>