<svg xmlns="http://www.w3.org/2000/svg" viewBox="0 0 429.43 372.06"><defs><style>.cls-1{fill:#283557;}.cls-2{fill:none;stroke:#01f7ff;stroke-miterlimit:10;stroke-width:3px;}</style></defs><title>express--icon</title><g id="Capa_2" data-name="Capa 2"><g id="Skiils"><path class="cls-1" d="M149.26,7.39S1.3,24.8,0,137a127.56,127.56,0,0,0,17.68,65.61C39,239.13,88,317.27,126.16,334.8a55.84,55.84,0,0,1,6.26,3.42c15,9.34,77.35,42.95,126.41-8.19a67.52,67.52,0,0,0,18.27-38.89c3-25.64,13.72-74.16,52.16-92.58A105.36,105.36,0,0,0,350,185.73c20.36-16.42,56.16-52.15,51.83-97.82-.08-.87-.14-1.74-.18-2.6-.35-9-7.31-73.84-135.11-84.13a386.24,386.24,0,0,0-74.25,1.36Z"/><path class="cls-2" d="M175,20.24S27,37.65,25.71,149.83A127.57,127.57,0,0,0,43.4,215.44C64.71,252,113.66,330.12,151.86,347.65a56,56,0,0,1,6.27,3.42c15,9.34,77.35,42.95,126.4-8.19A67.4,67.4,0,0,0,302.8,304c3-25.65,13.72-74.17,52.17-92.58a105.62,105.62,0,0,0,20.76-12.84c20.37-16.42,56.16-52.15,51.84-97.82-.08-.87-.15-1.73-.18-2.6-.35-9-7.32-73.84-135.12-84.13A386.14,386.14,0,0,0,218,15.39Z"/><g id="original"><path d="M242.55,187.11c-4.56,1.16-7.38,0-9.91-3.75-5.68-8.51-11.95-16.63-18-24.9-.78-1.07-1.59-2.12-2.6-3.45-7.16,9.66-14.31,18.86-21,28.43-2.4,3.42-4.92,4.91-9.4,3.7L208.54,151l-25.06-32.63c4.31-.84,7.29-.41,9.93,3.45,5.83,8.52,12.26,16.63,18.67,25.21,6.45-8.55,12.8-16.67,18.8-25.11,2.41-3.42,5-4.72,9.33-3.46-3.28,4.35-6.49,8.63-9.72,12.88-4.36,5.73-8.64,11.53-13.16,17.14-1.61,2-1.35,3.3.09,5.19C225.78,164.67,234,175.77,242.55,187.11Z"/><path d="M117.21,150.41c.72-3.61,1.2-7.29,2.2-10.83,6-21.43,30.6-30.34,47.5-17.06,9.9,7.79,12.36,18.77,11.87,31.15H123c-.84,22.21,15.15,35.62,35.53,28.78,7.15-2.4,11.36-8,13.47-15,1.07-3.51,2.84-4.06,6.14-3.06-1.69,8.76-5.52,16.08-13.52,20.66-12,6.86-29.13,4.64-38.14-4.89-5.32-5.6-7.58-12.57-8.58-20.1-.15-1.2-.46-2.38-.7-3.57Q117.21,153.45,117.21,150.41Zm5.87-1.49h50.43c-.33-16.06-10.33-27.47-24-27.57C134.51,121.23,123.73,132.37,123.08,148.92Z"/></g></g></g></svg>