<svg xmlns="http://www.w3.org/2000/svg" viewBox="0 0 429.43 372.06"><defs><style>.cls-1{fill:#283557;}.cls-2{fill:none;stroke:#01f7ff;stroke-miterlimit:10;stroke-width:3px;}.cls-3{fill:#f34f29;}</style></defs><title>git--icon</title><g id="Capa_2" data-name="Capa 2"><g id="Skiils"><path class="cls-1" d="M149.26,7.39S1.3,24.8,0,137a127.56,127.56,0,0,0,17.68,65.61C39,239.13,88,317.27,126.16,334.8a55.84,55.84,0,0,1,6.26,3.42c15,9.34,77.35,42.95,126.41-8.19a67.52,67.52,0,0,0,18.27-38.89c3-25.64,13.72-74.16,52.16-92.58A105.36,105.36,0,0,0,350,185.73c20.36-16.42,56.16-52.15,51.83-97.82-.08-.87-.14-1.74-.18-2.6-.35-9-7.31-73.84-135.11-84.13a386.24,386.24,0,0,0-74.25,1.36Z"/><path class="cls-2" d="M175,20.24S27,37.65,25.71,149.83A127.57,127.57,0,0,0,43.4,215.44C64.71,252,113.66,330.12,151.86,347.65a56,56,0,0,1,6.27,3.42c15,9.34,77.35,42.95,126.4-8.19A67.4,67.4,0,0,0,302.8,304c3-25.65,13.72-74.17,52.17-92.58a105.62,105.62,0,0,0,20.76-12.84c20.37-16.42,56.16-52.15,51.84-97.82-.08-.87-.15-1.73-.18-2.6-.35-9-7.32-73.84-135.12-84.13A386.14,386.14,0,0,0,218,15.39Z"/><path class="cls-3" d="M246.09,154.68,191,99.57a8.13,8.13,0,0,0-11.49,0L168,111l14.52,14.51a9.66,9.66,0,0,1,12.23,12.31l14,14a9.66,9.66,0,1,1-5.8,5.46l-13-13v34.34a9.26,9.26,0,0,1,2.56,1.83A9.67,9.67,0,1,1,182,178.3V143.64A9.67,9.67,0,0,1,176.72,131l-14.31-14.31-37.79,37.79a8.12,8.12,0,0,0,0,11.5L179.73,221a8.12,8.12,0,0,0,11.5,0l54.86-54.86A8.14,8.14,0,0,0,246.09,154.68Z"/></g></g></svg>