<svg xmlns="http://www.w3.org/2000/svg" viewBox="0 0 429.43 372.06"><defs><style>.cls-1{fill:#283557;}.cls-2{fill:none;stroke:#01f7ff;stroke-miterlimit:10;stroke-width:3px;}.cls-3{fill:#e44d26;}.cls-4{fill:#f16529;}.cls-5{fill:#ebebeb;}.cls-6{fill:#fff;}</style></defs><title>html-icon</title><g id="Capa_2" data-name="Capa 2"><g id="Skiils"><path class="cls-1" d="M149.26,7.39S1.3,24.8,0,137a127.56,127.56,0,0,0,17.68,65.61C39,239.13,88,317.27,126.16,334.8a55.84,55.84,0,0,1,6.26,3.42c15,9.34,77.35,42.95,126.41-8.19a67.52,67.52,0,0,0,18.27-38.89c3-25.64,13.72-74.16,52.16-92.58A105.36,105.36,0,0,0,350,185.73c20.36-16.42,56.16-52.15,51.83-97.82-.08-.87-.14-1.74-.18-2.6-.35-9-7.31-73.84-135.11-84.13a386.24,386.24,0,0,0-74.25,1.36Z"/><path class="cls-2" d="M175,20.24S27,37.65,25.71,149.83A127.57,127.57,0,0,0,43.4,215.44C64.71,252,113.66,330.12,151.86,347.65a56,56,0,0,1,6.27,3.42c15,9.34,77.35,42.95,126.4-8.19A67.4,67.4,0,0,0,302.8,304c3-25.65,13.72-74.17,52.17-92.58a105.62,105.62,0,0,0,20.76-12.84c20.37-16.42,56.16-52.15,51.84-97.82-.08-.87-.15-1.73-.18-2.6-.35-9-7.32-73.84-135.12-84.13A386.14,386.14,0,0,0,218,15.39Z"/><path class="cls-3" d="M141.38,210.18,131.38,98H241.31l-10,112.19-45,12.48Z"/><path class="cls-4" d="M186.35,213.11,222.72,203l8.56-95.88H186.35Z"/><path class="cls-5" d="M186.35,148.76H168.13l-1.25-14.09h19.47V120.9H151.84l.33,3.7,3.38,37.92h30.8Zm0,35.74-.06,0L171,180.38l-1-11H156.16l1.93,21.6,28.19,7.83.07,0Z"/><path class="cls-6" d="M186.3,148.76v13.76h16.95l-1.6,17.85-15.35,4.15v14.31L214.51,191l.21-2.32L218,152.46l.34-3.7h-32Zm0-27.86v13.77h33.24l.28-3.1.63-7,.33-3.7Z"/></g></g></svg>