<svg xmlns="http://www.w3.org/2000/svg" viewBox="0 0 429.43 372.06"><defs><style>.cls-1{fill:#283557;}.cls-2{fill:none;stroke:#01f7ff;stroke-miterlimit:10;stroke-width:3px;}.cls-3{fill:#f0db4f;}.cls-4{fill:#323330;}</style></defs><title>js-icon</title><g id="Capa_2" data-name="Capa 2"><g id="Skiils"><path class="cls-1" d="M149.26,7.39S1.3,24.8,0,137a127.56,127.56,0,0,0,17.68,65.61C39,239.13,88,317.27,126.16,334.8a55.84,55.84,0,0,1,6.26,3.42c15,9.34,77.35,42.95,126.41-8.19a67.52,67.52,0,0,0,18.27-38.89c3-25.64,13.72-74.16,52.16-92.58A105.36,105.36,0,0,0,350,185.73c20.36-16.42,56.16-52.15,51.83-97.82-.08-.87-.14-1.74-.18-2.6-.35-9-7.31-73.84-135.11-84.13a386.24,386.24,0,0,0-74.25,1.36Z"/><path class="cls-2" d="M175,20.24S27,37.65,25.71,149.83A127.57,127.57,0,0,0,43.4,215.44C64.71,252,113.66,330.12,151.86,347.65a56,56,0,0,1,6.27,3.42c15,9.34,77.35,42.95,126.4-8.19A67.4,67.4,0,0,0,302.8,304c3-25.65,13.72-74.17,52.17-92.58a105.62,105.62,0,0,0,20.76-12.84c20.37-16.42,56.16-52.15,51.84-97.82-.08-.87-.15-1.73-.18-2.6-.35-9-7.32-73.84-135.12-84.13A386.14,386.14,0,0,0,218,15.39Z"/><path class="cls-3" d="M123.37,97.69H248.55V222.87H123.37Z"/><path class="cls-4" d="M238.31,193c-.92-5.71-4.64-10.5-15.67-15-3.83-1.76-8.11-3-9.38-5.92a6.56,6.56,0,0,1-.23-3.67c.83-3.32,4.79-4.35,7.93-3.4a8.73,8.73,0,0,1,5.09,4.72c5.4-3.49,5.39-3.47,9.17-5.88a23.64,23.64,0,0,0-3-4c-3.25-3.63-7.67-5.5-14.75-5.36l-3.69.48a16.75,16.75,0,0,0-8.88,5.24c-5.92,6.72-4.23,18.49,3,23.33,7.1,5.33,17.54,6.55,18.87,11.53,1.3,6.11-4.49,8.08-10.23,7.38-4.24-.88-6.6-3-9.14-6.95L197.84,201c1.14,2.5,2.34,3.63,4.26,5.79,9.07,9.2,31.76,8.75,35.83-5.17A17.34,17.34,0,0,0,238.31,193Zm-46.89-37.79h-11.7l-.05,30.27c0,6.44.33,12.34-.72,14.15-1.71,3.56-6.15,3.12-8.17,2.43-2.06-1-3.11-2.45-4.32-4.49a5.64,5.64,0,0,0-.67-1.07l-9.52,5.83a18.88,18.88,0,0,0,6.9,7.9c4.47,2.68,10.46,3.5,16.74,2.06a14.75,14.75,0,0,0,9.44-7.4c2.67-4.91,2.1-10.86,2.07-17.44C191.48,176.72,191.42,166,191.42,155.22Z"/></g></g></svg>