<svg xmlns="http://www.w3.org/2000/svg" viewBox="0 0 429.43 372.06"><defs><style>.cls-1{fill:#283557;}.cls-2{fill:none;stroke:#01f7ff;stroke-width:3px;}.cls-2,.cls-3{stroke-miterlimit:10;}.cls-3{fill:#00618a;stroke:#05618a;stroke-width:5px;}</style></defs><title>mysql-icon_1</title><g id="Capa_2" data-name="Capa 2"><g id="Skiils"><path class="cls-1" d="M149.26,7.39S1.3,24.8,0,137a127.56,127.56,0,0,0,17.68,65.61C39,239.13,88,317.27,126.16,334.8a55.84,55.84,0,0,1,6.26,3.42c15,9.34,77.35,42.95,126.41-8.19a67.52,67.52,0,0,0,18.27-38.89c3-25.64,13.72-74.16,52.16-92.58A105.36,105.36,0,0,0,350,185.73c20.36-16.42,56.16-52.15,51.83-97.82-.08-.87-.14-1.74-.18-2.6-.35-9-7.31-73.84-135.11-84.13a386.24,386.24,0,0,0-74.25,1.36Z"/><path class="cls-2" d="M175,20.24S27,37.65,25.71,149.83A127.57,127.57,0,0,0,43.4,215.44C64.71,252,113.66,330.12,151.86,347.65a56,56,0,0,1,6.27,3.42c15,9.34,77.35,42.95,126.4-8.19A67.4,67.4,0,0,0,302.8,304c3-25.65,13.72-74.17,52.17-92.58a105.62,105.62,0,0,0,20.76-12.84c20.37-16.42,56.16-52.15,51.84-97.82-.08-.87-.15-1.73-.18-2.6-.35-9-7.32-73.84-135.12-84.13A386.14,386.14,0,0,0,218,15.39Z"/><path class="cls-3" d="M239.23,193.44c-6.87-.19-12.11.45-16.59,2.34-1.27.54-3.3.55-3.51,2.15.7.73.81,1.83,1.36,2.73a21.68,21.68,0,0,0,4.49,5.27c1.76,1.33,3.58,2.75,5.47,3.9,3.35,2,7.1,3.21,10.34,5.26,1.9,1.21,3.79,2.74,5.65,4.1.92.68,1.54,1.73,2.74,2.15v-.19c-.63-.81-.79-1.9-1.37-2.74l-2.54-2.54a41.73,41.73,0,0,0-9-8.58c-2.67-1.92-8.65-4.5-9.76-7.61l-.19-.19a43.75,43.75,0,0,0,5.85-1.37c2.93-.79,5.56-.58,8.59-1.37l4.09-1.17v-.78c-1.53-1.57-2.62-3.65-4.29-5.07a125.56,125.56,0,0,0-14.05-10.54c-2.72-1.71-6.09-2.83-9-4.29-1-.49-2.68-.74-3.32-1.56-1.52-1.93-2.34-4.38-3.51-6.63-2.45-4.72-4.86-9.87-7-14.83-1.48-3.39-2.44-6.72-4.29-9.76-8.86-14.57-18.4-23.36-33.17-32-3.14-1.84-6.93-2.56-10.93-3.51l-6.44-.39c-1.31-.55-2.67-2.15-3.9-2.93-4.89-3.09-17.45-9.82-21.07-1-2.29,5.58,3.42,11,5.46,13.86a41.27,41.27,0,0,1,4.3,6.44c.67,1.46.79,2.93,1.36,4.48,1.42,3.83,2.65,8,4.49,11.52a41.15,41.15,0,0,0,3.12,5.26c.72,1,2,1.42,2.15,2.93-1.21,1.69-1.28,4.3-1.95,6.44-3.05,9.62-1.9,21.57,2.53,28.68,1.36,2.19,4.57,6.87,9,5.08,3.85-1.57,3-6.44,4.1-10.74.25-1,.09-1.68.58-2.34v.2l3.51,7c2.6,4.19,7.22,8.56,11.13,11.52,2,1.53,3.62,4.17,6.24,5.07v-.2h-.19c-.51-.79-1.31-1.12-2-1.75a45.76,45.76,0,0,1-4.48-5.07,118.13,118.13,0,0,1-9.56-15.61c-1.37-2.63-2.56-5.53-3.71-8.2-.45-1-.44-2.59-1.37-3.12-1.26,2-3.12,3.54-4.09,5.85-1.57,3.7-1.77,8.21-2.35,12.88-.34.12-.19,0-.39.19-2.71-.65-3.67-3.45-4.68-5.85-2.55-6.07-3-15.84-.78-22.83.58-1.81,3.21-7.5,2.15-9.17-.51-1.67-2.19-2.63-3.13-3.9a31.33,31.33,0,0,1-3.12-5.47c-2.09-4.73-3.07-10-5.27-14.82a43,43,0,0,0-4.29-6.64c-1.62-2.25-3.43-3.91-4.68-6.63-.45-1-1-2.52-.39-3.52a1.54,1.54,0,0,1,1.17-1.17c1.13-.87,4.28.29,5.46.78a47.26,47.26,0,0,1,8.39,4.3c1.27.84,2.56,2.47,4.1,2.92h1.75c2.75.63,5.83.2,8.4,1a50.88,50.88,0,0,1,12.29,5.85,76.13,76.13,0,0,1,26.73,29.27c1,1.94,1.45,3.79,2.34,5.86,1.8,4.15,4.06,8.42,5.85,12.48s3.53,8.14,6.05,11.52c1.33,1.77,6.45,2.72,8.78,3.7a51.84,51.84,0,0,1,5.86,2.34c3,1.79,5.81,3.91,8.58,5.86C234.76,189.53,239,191.68,239.23,193.44ZM152,119.1a13.57,13.57,0,0,0-3.52.39v.19h.2c.68,1.4,1.89,2.31,2.73,3.51l2,4.1.2-.19c1.2-.86,1.76-2.22,1.75-4.3-.48-.51-.55-1.14-1-1.75C153.79,120.24,152.71,119.78,152,119.1Z"/></g></g></svg>