<svg xmlns="http://www.w3.org/2000/svg" viewBox="0 0 429.43 372.06"><defs><style>.cls-1{fill:#283557;}.cls-2{fill:none;stroke:#01f7ff;stroke-miterlimit:10;stroke-width:3px;}.cls-3{fill:#83cd29;}</style></defs><title>nodejs-icon</title><g id="Capa_2" data-name="Capa 2"><g id="Skiils"><path class="cls-1" d="M149.26,7.39S1.3,24.8,0,137a127.56,127.56,0,0,0,17.68,65.61C39,239.13,88,317.27,126.16,334.8a55.84,55.84,0,0,1,6.26,3.42c15,9.34,77.35,42.95,126.41-8.19a67.52,67.52,0,0,0,18.27-38.89c3-25.64,13.72-74.16,52.16-92.58A105.36,105.36,0,0,0,350,185.73c20.36-16.42,56.16-52.15,51.83-97.82-.08-.87-.14-1.74-.18-2.6-.35-9-7.31-73.84-135.11-84.13a386.24,386.24,0,0,0-74.25,1.36Z"/><path class="cls-2" d="M175,20.24S27,37.65,25.71,149.83A127.57,127.57,0,0,0,43.4,215.44C64.71,252,113.66,330.12,151.86,347.65a56,56,0,0,1,6.27,3.42c15,9.34,77.35,42.95,126.4-8.19A67.4,67.4,0,0,0,302.8,304c3-25.65,13.72-74.17,52.17-92.58a105.62,105.62,0,0,0,20.76-12.84c20.37-16.42,56.16-52.15,51.84-97.82-.08-.87-.15-1.73-.18-2.6-.35-9-7.32-73.84-135.12-84.13A386.14,386.14,0,0,0,218,15.39Z"/><path class="cls-3" d="M234,125.06l-44.1-25.6a9.47,9.47,0,0,0-9.2,0l-44.57,25.6a9.59,9.59,0,0,0-4.9,8.08v51.14a9.65,9.65,0,0,0,5,8.08L148,199.05c5.62,2.77,7.61,2.77,10.17,2.77,8.34,0,13.1-5,13.1-13.83V137.5c0-.71-.37-1.77-1.07-1.77h-5.63c-.71,0-2.3,1.06-2.3,1.77V188c0,3.9-3.53,7.77-10.11,4.48l-12.17-7a1.38,1.38,0,0,1-.72-1.18V133.14c0-.49.55-1,1-1.22l44.42-25.56a1.59,1.59,0,0,1,1.44,0L230,131.92c.42.25.28.72.28,1.22v51.14c0,.49.18,1-.24,1.2l-44.08,25.57a1.24,1.24,0,0,1-1.26,0l-11.31-6.75a1.06,1.06,0,0,0-1.07-.08,29.53,29.53,0,0,1-6.68,3c-.73.25-1.8.69.41,1.93l14.8,8.75a9.29,9.29,0,0,0,9.31,0L234,192.36a9,9,0,0,0,4.23-8.08V133.14A9,9,0,0,0,234,125.06Zm-34.86,51.11c-11.73,0-14.31-3.23-15.17-9.06-.1-.63-.64-1.38-1.27-1.38H177c-.7,0-1.27.86-1.27,1.56,0,7.47,4.05,16.52,23.45,16.52,14,0,22.09-5.46,22.09-15.11s-6.47-12.09-20.09-13.89-15.16-2.74-15.16-6c0-2.66,1.19-6.2,11.38-6.2,9.1,0,12.46,1.95,13.84,8.09a1.27,1.27,0,0,0,1.24,1h5.75a1.27,1.27,0,0,0,.94-.4,1.3,1.3,0,0,0,.34-1c-.89-10.56-7.91-15.49-22.11-15.49-12.63,0-20.17,5.33-20.17,14.28,0,9.69,7.5,12.37,19.62,13.57,14.51,1.42,15.64,3.54,15.64,6.4C212.45,174.06,208.47,176.17,199.14,176.17Z"/></g></g></svg>