<svg xmlns="http://www.w3.org/2000/svg" viewBox="0 0 429.43 372.06"><defs><style>.cls-1{fill:#283557;}.cls-2{fill:none;stroke:#01f7ff;stroke-miterlimit:10;stroke-width:3px;}.cls-3{fill:#61dafb;}</style></defs><title>reactjs-icon</title><g id="Capa_2" data-name="Capa 2"><g id="Skiils"><path class="cls-1" d="M149.26,7.39S1.3,24.8,0,137a127.56,127.56,0,0,0,17.68,65.61C39,239.13,88,317.27,126.16,334.8a55.84,55.84,0,0,1,6.26,3.42c15,9.34,77.35,42.95,126.41-8.19a67.52,67.52,0,0,0,18.27-38.89c3-25.64,13.72-74.16,52.16-92.58A105.36,105.36,0,0,0,350,185.73c20.36-16.42,56.16-52.15,51.83-97.82-.08-.87-.14-1.74-.18-2.6-.35-9-7.31-73.84-135.11-84.13a386.24,386.24,0,0,0-74.25,1.36Z"/><path class="cls-2" d="M175,20.24S27,37.65,25.71,149.83A127.57,127.57,0,0,0,43.4,215.44C64.71,252,113.66,330.12,151.86,347.65a56,56,0,0,1,6.27,3.42c15,9.34,77.35,42.95,126.4-8.19A67.4,67.4,0,0,0,302.8,304c3-25.65,13.72-74.17,52.17-92.58a105.62,105.62,0,0,0,20.76-12.84c20.37-16.42,56.16-52.15,51.84-97.82-.08-.87-.15-1.73-.18-2.6-.35-9-7.32-73.84-135.12-84.13A386.14,386.14,0,0,0,218,15.39Z"/><circle class="cls-3" cx="185.73" cy="159.23" r="11.4"/><path class="cls-3" d="M229,140.43c-2.2-.8-4.5-1.6-6.9-2.3.6-2.4,1.1-4.8,1.5-7.1,2.1-13.2-.2-22.5-6.6-26.1a12.42,12.42,0,0,0-6.4-1.6c-7,0-15.9,5.2-24.9,13.9-9-8.7-17.9-13.9-24.9-13.9a12.42,12.42,0,0,0-6.4,1.6c-6.4,3.7-8.7,13-6.6,26.1.4,2.3.9,4.7,1.5,7.1a69.74,69.74,0,0,0-6.9,2.3c-12.5,4.8-19.3,11.4-19.3,18.8s6.9,14,19.3,18.8c2.2.8,4.5,1.6,6.9,2.3-.6,2.4-1.1,4.8-1.5,7.1-2.1,13.2.2,22.5,6.6,26.1a12.42,12.42,0,0,0,6.4,1.6c7.1,0,16-5.2,24.9-13.9,9,8.7,17.9,13.9,24.9,13.9a12.42,12.42,0,0,0,6.4-1.6c6.4-3.7,8.7-13,6.6-26.1-.4-2.3-.9-4.7-1.5-7.1A69.74,69.74,0,0,0,229,178c12.5-4.8,19.3-11.4,19.3-18.8S241.53,145.23,229,140.43Zm-14.8-30.5c4.1,2.4,5.5,9.8,3.8,20.3a60.22,60.22,0,0,1-1.4,6.6,118.8,118.8,0,0,0-16.5-2.5,144.28,144.28,0,0,0-10.4-13c7.4-7.3,14.9-12.3,21-12.3A6.76,6.76,0,0,1,214.23,109.93ZM203,169.23c-1.8,3.2-3.9,6.4-6.1,9.6-3.7.3-7.4.4-11.2.4s-7.6-.1-11.2-.4q-3.3-4.8-6-9.6c-1.9-3.3-3.7-6.7-5.3-10,1.6-3.3,3.4-6.7,5.3-10s3.9-6.4,6.1-9.6c3.7-.3,7.4-.4,11.2-.4s7.6.1,11.2.4q3.3,4.8,6,9.6c1.9,3.3,3.7,6.7,5.3,10C206.63,162.53,204.93,165.83,203,169.23Zm8.3-3.3c1.5,3.5,2.7,6.9,3.8,10.3-3.4.8-7,1.4-10.8,1.9,1.2-1.9,2.5-3.9,3.6-6S210.23,167.93,211.33,165.93ZM185.73,193c-2.4-2.6-4.7-5.4-6.9-8.3,2.3.1,4.6.2,6.9.2s4.6-.1,6.9-.2C190.43,187.63,188.13,190.43,185.73,193Zm-18.6-15c-3.8-.5-7.4-1.1-10.8-1.9,1.1-3.3,2.3-6.8,3.8-10.3,1.1,2,2.2,4.1,3.4,6.1C164.73,174.13,165.93,176,167.13,178Zm-7-25.5c-1.5-3.5-2.7-6.9-3.8-10.3,3.4-.8,7-1.4,10.8-1.9-1.2,1.9-2.5,3.9-3.6,6S161.23,150.53,160.13,152.53Zm25.6-27.1c2.4,2.6,4.7,5.4,6.9,8.3-2.3-.1-4.6-.2-6.9-.2s-4.6.1-6.9.2C181,130.83,183.33,128,185.73,125.43Zm22.2,21-3.6-6c3.8.5,7.4,1.1,10.8,1.9-1.1,3.3-2.3,6.8-3.8,10.3C210.23,150.53,209.13,148.43,207.93,146.43Zm-54.5-16.2c-1.7-10.5-.3-17.9,3.8-20.3a6.76,6.76,0,0,1,3.5-.9c6,0,13.5,4.9,21,12.3a131.45,131.45,0,0,0-10.4,13,136,136,0,0,0-16.5,2.5C154.23,134.53,153.83,132.33,153.43,130.23Zm-24.7,29c0-4.7,5.7-9.7,15.7-13.4a60,60,0,0,1,6.4-2.1,145.76,145.76,0,0,0,6,15.6,126,126,0,0,0-6,15.5C137,170.83,128.73,164.83,128.73,159.23Zm28.5,49.3c-4.1-2.4-5.5-9.8-3.8-20.3a60.22,60.22,0,0,1,1.4-6.6,118.8,118.8,0,0,0,16.5,2.5,144.28,144.28,0,0,0,10.4,13c-7.4,7.3-14.9,12.3-21,12.3A6.76,6.76,0,0,1,157.23,208.53Zm60.8-20.3c1.7,10.5.3,17.9-3.8,20.3a6.76,6.76,0,0,1-3.5.9c-6,0-13.5-4.9-21-12.3a131.45,131.45,0,0,0,10.4-13,136,136,0,0,0,16.5-2.5C217.23,183.93,217.63,186.13,218,188.23Zm9-15.6a60,60,0,0,1-6.4,2.1,145.76,145.76,0,0,0-6-15.6,126,126,0,0,0,6-15.5c13.8,4,22.1,10,22.1,15.6C242.73,163.93,236.93,168.93,227,172.63Z"/></g></g></svg>