<svg xmlns="http://www.w3.org/2000/svg" viewBox="0 0 1400 369"><defs><style>.cls-1{fill:#01f7ff;}.cls-2{fill:#293658;}</style></defs><title>background_2</title><g id="Capa_2" data-name="Capa 2"><g id="Capa_1-2" data-name="Capa 1"><path class="cls-1" d="M0,1S110.19,48.6,165.93,133.74c0,0,32.52,47.64,115,51.07a73.56,73.56,0,0,0,16.87-1.3c29.22-5.68,136.5-24.6,176.64-4.92,0,0,38.89,10.07,118,71.41,0,0,127,80.55,242.4,78.72,0,0,86.86.92,133.52-17.39,0,0,72.6-41.2,206.11,23.8,0,0,72.6,33.87,149.08,33.87,0,0,45.37-.92,76.48-12.82V1Z"/><path class="cls-2" d="M0,0S110.19,38.16,165.93,106.41c0,0,32.52,38.19,115,40.93a90,90,0,0,0,16.87-1c29.22-4.55,136.5-19.72,176.64-3.94,0,0,38.89,8.08,118,57.24,0,0,127,64.58,242.4,63.11,0,0,86.86.74,133.52-13.94,0,0,72.6-33,206.11,19.08,0,0,72.6,27.15,149.08,27.15,0,0,45.37-.73,76.48-10.27V0Z"/></g></g></svg>