<svg xmlns="http://www.w3.org/2000/svg" viewBox="0 0 242.14 209.88"><defs><style>.cls-1{fill:#283557;}.cls-2{fill:none;stroke:#fcd33f;stroke-miterlimit:10;stroke-width:3px;}.cls-3{font-size:30px;fill:#fcd33f;font-family:MyriadPro-Regular, Myriad Pro;}.cls-4{letter-spacing:-0.05em;}.cls-5{letter-spacing:-0.06em;}.cls-6{letter-spacing:0em;}</style></defs><title>javascript</title><g id="Capa_2" data-name="Capa 2"><g id="Skiils"><path class="cls-1" d="M83.93,4.16S.73,14,0,77a71.84,71.84,0,0,0,10,36.89c12,20.55,39.51,64.49,61,74.35a33.42,33.42,0,0,1,3.53,1.92c8.44,5.25,43.49,24.15,71.08-4.6a38,38,0,0,0,10.27-21.87c1.68-14.42,7.72-41.71,29.34-52.06a59.13,59.13,0,0,0,11.67-7.22c11.46-9.23,31.58-29.32,29.15-55,0-.48-.08-1-.1-1.46-.2-5-4.11-41.52-76-47.31a218.16,218.16,0,0,0-41.75.77Z"/><path class="cls-2" d="M98.39,11.38S15.18,21.17,14.46,84.25a71.74,71.74,0,0,0,9.94,36.9c12,20.55,39.51,64.49,61,74.35a30.83,30.83,0,0,1,3.52,1.92c8.44,5.25,43.5,24.15,71.08-4.6A37.91,37.91,0,0,0,170.27,171c1.69-14.42,7.72-41.71,29.34-52.06a59.6,59.6,0,0,0,11.67-7.22c11.46-9.24,31.59-29.33,29.15-55,0-.49-.08-1-.1-1.46-.19-5.05-4.11-41.52-76-47.31a217.45,217.45,0,0,0-41.76.76Z"/><text class="cls-3" transform="translate(40.58 96.46)">J<tspan class="cls-4" x="11.1" y="0">A</tspan><tspan class="cls-5" x="27.87" y="0">V</tspan><tspan class="cls-6" x="42.9" y="0">ASCRIPT</tspan></text></g></g></svg>