<svg xmlns="http://www.w3.org/2000/svg" viewBox="0 0 94.12 81.57"><defs><style>.cls-1{fill:#5d76ea;}.cls-2{fill:none;stroke:#fff;stroke-miterlimit:10;}</style></defs><title>socialmedia</title><g id="Capa_2" data-name="Capa 2"><g id="footer"><path class="cls-1" d="M32.65,1.62S.28,5.43,0,30A27.88,27.88,0,0,0,3.87,44.32c4.66,8,15.37,25.09,23.73,28.93A10.74,10.74,0,0,1,29,74c3.28,2,16.92,9.39,27.66-1.8a14.76,14.76,0,0,0,4-8.5c.66-5.61,3-16.23,11.42-20.26a23.06,23.06,0,0,0,4.54-2.81C81,37,88.87,29.22,87.92,19.23c0-.19,0-.38,0-.57-.08-2-1.6-16.15-29.56-18.4a83.94,83.94,0,0,0-16.24.3Z"/><path class="cls-2" d="M38.28,4.43S5.91,8.24,5.63,32.78A27.87,27.87,0,0,0,9.49,47.13c4.67,8,15.38,25.09,23.73,28.93a11.33,11.33,0,0,1,1.37.75c3.29,2,16.93,9.39,27.66-1.79a14.8,14.8,0,0,0,4-8.51c.65-5.61,3-16.23,11.41-20.26a23,23,0,0,0,4.54-2.8C86.66,39.85,94.49,32,93.54,22c0-.19,0-.38,0-.57-.07-2-1.6-16.15-29.56-18.4a83.94,83.94,0,0,0-16.24.3Z"/></g></g></svg>